<svg xmlns="http://www.w3.org/2000/svg" width="16" height="16" viewBox="182 382 16 16" fill="none"><g>
<g>
<path d="M187.531 390.328C187.297 390.562 186.917 390.562 186.683 390.328L184.685 388.33C184.597 388.242 184.507 388.152 184.437 388.07C184.359 387.977 184.27 387.855 184.217 387.693C184.145 387.472 184.145 387.234 184.217 387.013C184.27 386.85 184.359 386.728 184.437 386.636C184.507 386.553 184.597 386.463 184.685 386.375L186.677 384.383C186.912 384.148 187.292 384.148 187.526 384.383C187.76 384.617 187.76 384.997 187.526 385.231L186.002 386.755L193.726 386.755C194.057 386.755 194.326 387.024 194.326 387.355C194.326 387.687 194.057 387.955 193.726 387.955L186.007 387.955L187.531 389.48C187.766 389.714 187.766 390.094 187.531 390.328Z" fill="currentColor" />
<path d="M193.998 392.045L192.474 390.52C192.24 390.286 192.24 389.906 192.474 389.672C192.709 389.438 193.088 389.438 193.323 389.672L195.315 391.664C195.403 391.752 195.493 391.842 195.563 391.925C195.641 392.017 195.73 392.139 195.783 392.302C195.855 392.523 195.855 392.761 195.783 392.982C195.73 393.144 195.641 393.266 195.563 393.359C195.493 393.441 195.403 393.531 195.315 393.619L193.317 395.617C193.083 395.851 192.703 395.851 192.469 395.617C192.234 395.383 192.234 395.003 192.469 394.769L193.993 393.245L186.556 393.245C186.225 393.245 185.956 392.976 185.956 392.645C185.956 392.313 186.225 392.045 186.556 392.045L193.998 392.045Z" fill="currentColor" />
</g>
</g>
</svg>