<svg xmlns="http://www.w3.org/2000/svg" width="16" height="16" viewBox="548 106 16 16" fill="none"><g>
<g>
<path d="M552.3 108.2C551.14 108.2 550.2 109.14 550.2 110.3V117.7C550.2 118.86 551.14 119.8 552.3 119.8H557.3C557.631 119.8 557.9 119.531 557.9 119.2C557.9 118.869 557.631 118.6 557.3 118.6H552.3C551.803 118.6 551.4 118.197 551.4 117.7V110.3C551.4 109.803 551.803 109.4 552.3 109.4H559.7C560.197 109.4 560.6 109.803 560.6 110.3V115.3C560.6 115.631 560.869 115.9 561.2 115.9C561.531 115.9 561.8 115.631 561.8 115.3V110.3C561.8 109.14 560.86 108.2 559.7 108.2H552.3Z" fill="currentColor" />
<path d="M553.6 111.945C553.269 111.945 553 112.213 553 112.545C553 112.876 553.269 113.145 553.6 113.145H558.4C558.731 113.145 559 112.876 559 112.545C559 112.213 558.731 111.945 558.4 111.945H553.6Z" fill="currentColor" />
<path d="M553 115.455C553 115.124 553.269 114.855 553.6 114.855H558.4C558.731 114.855 559 115.124 559 115.455C559 115.787 558.731 116.055 558.4 116.055H553.6C553.269 116.055 553 115.787 553 115.455Z" fill="currentColor" />
<path d="M559.206 119.437C558.827 119.035 558.846 118.402 559.248 118.024L560.472 116.872C560.874 116.494 561.507 116.513 561.885 116.915L563.037 118.138C563.415 118.54 563.396 119.173 562.994 119.552L561.771 120.703C561.369 121.082 560.736 121.063 560.357 120.66L559.206 119.437ZM561.094 119.692L562.026 118.815L561.149 117.883L560.217 118.76L561.094 119.692Z" fill="currentColor" />
</g>
</g>
</svg>