<svg xmlns="http://www.w3.org/2000/svg" width="16" height="16" viewBox="504 170 16 16" fill="none"><g>
<path d="M512.8 173.221V174.36C512.8 174.706 512.801 174.929 512.814 175.099C512.828 175.262 512.85 175.323 512.865 175.352C512.923 175.465 513.015 175.557 513.128 175.615C513.157 175.63 513.218 175.652 513.381 175.666C513.551 175.68 513.774 175.68 514.12 175.68H516.06C516.06 175.676 516.059 175.673 516.058 175.669C516.038 175.598 516.005 175.532 515.961 175.473C515.923 175.422 515.866 175.372 515.564 175.14L513.7 173.709C513.4 173.479 513.306 173.409 513.208 173.359C513.081 173.292 512.945 173.246 512.803 173.221L512.8 173.221ZM516.08 176.88L514.097 176.88C513.781 176.88 513.508 176.88 513.283 176.862C513.046 176.842 512.81 176.8 512.583 176.684C512.244 176.511 511.969 176.236 511.796 175.897C511.681 175.67 511.638 175.434 511.618 175.197C511.6 174.972 511.6 174.699 511.6 174.383L511.6 173.2H508.52C508.174 173.2 507.951 173.2 507.781 173.214C507.618 173.228 507.557 173.25 507.528 173.265C507.415 173.323 507.323 173.415 507.265 173.528C507.25 173.557 507.228 173.618 507.214 173.781C507.2 173.951 507.2 174.174 507.2 174.52V181.195C507.2 181.541 507.2 181.764 507.214 181.934C507.228 182.097 507.25 182.158 507.265 182.187C507.323 182.3 507.415 182.392 507.528 182.45C507.557 182.465 507.618 182.487 507.781 182.501C507.951 182.515 508.174 182.515 508.52 182.515H514.76C515.106 182.515 515.329 182.515 515.499 182.501C515.662 182.487 515.723 182.465 515.752 182.45C515.865 182.392 515.957 182.3 516.015 182.187C516.03 182.158 516.052 182.097 516.066 181.934C516.08 181.764 516.08 181.541 516.08 181.195V176.88ZM512.246 172C512.559 172 512.787 172 513.011 172.039C513.273 172.085 513.527 172.171 513.763 172.295C513.965 172.4 514.146 172.539 514.394 172.729C514.406 172.738 514.418 172.748 514.43 172.757L516.294 174.188C516.31 174.2 516.326 174.212 516.342 174.224C516.57 174.399 516.772 174.553 516.922 174.755C517.054 174.932 517.153 175.131 517.212 175.343C517.281 175.585 517.28 175.839 517.28 176.127C517.28 176.147 517.28 176.167 517.28 176.187V181.218C517.28 181.534 517.28 181.807 517.262 182.032C517.242 182.269 517.2 182.505 517.084 182.732C516.911 183.071 516.636 183.346 516.297 183.519C516.07 183.635 515.834 183.677 515.597 183.697C515.372 183.715 515.099 183.715 514.783 183.715H508.497C508.181 183.715 507.908 183.715 507.683 183.697C507.446 183.677 507.21 183.635 506.983 183.519C506.644 183.346 506.369 183.071 506.196 182.732C506.081 182.505 506.038 182.269 506.018 182.032C506 181.807 506 181.534 506 181.218V174.497C506 174.181 506 173.908 506.018 173.683C506.038 173.446 506.081 173.21 506.196 172.983C506.369 172.644 506.644 172.369 506.983 172.196C507.21 172.081 507.446 172.038 507.683 172.018C507.908 172 508.181 172 508.497 172L512.2 172C512.216 172 512.231 172 512.246 172Z" fill="currentColor" />
</g>
</svg>